# xmcd CD database file
#
# Track frame offsets:
#	150
#	10315
#	20240
#	32035
#	47075
#	58157
#	70145
#	80365
#	92327
#	102687
#	113670
#	125310
#	137615
#	148340
#	158937
#	170405
#	182747
#	194990
#	205710
#	216267
#	229257
#	240450
#	252147
#	262510
#	272572
#	283475
#	295737
#	308094
#	320587
#	330580
#
# Disc length: 4565 seconds
#
# Revision: 0
# Processed by: cddbd v1.5.1PL0 Copyright (c) Steve Scherf et al.
# Submitted via: CDex 1.51
#
DISCID=c111d31e
DTITLE=Lightnin' Hopkins - Hear Me Talkin'
DYEAR=2004
DGENRE=Blues
TTITLE0=Hear Me Talkin'
TTITLE1=Hopkins' Sky Hop
TTITLE2=Lightnin's Stomp
TTITLE3=Lightnin' Don't Feel Well
TTITLE4=Flash Lightnin'
TTITLE5=Shine On, Moon!
TTITLE6=Had A Gal Called Sal
TTITLE7=Remember Me
TTITLE8=Let's Move (Moving On Out Boogie)
TTITLE9=Blue Is A Mighty Bad Feeling
TTITLE10=Boogie Woogie Dance
TTITLE11=Please Don't Go Baby
TTITLE12=Finally Met My Baby
TTITLE13=Nothin' But The Blues
TTITLE14=Lightnin' Boogie
TTITLE15=Evil Hearted Woman
TTITLE16=Lonesome In Your Home
TTITLE17=Lightnin' Special
TTITLE18=My Little Kewpie Doll
TTITLE19=That's Alright Baby
TTITLE20=I Love You Baby
TTITLE21=Grandma's Boogie
TTITLE22=Don't Need A Job
TTITLE23=Early Mornin' Boogie
TTITLE24=Blues For My Cookie
TTITLE25=Sittin' Down Thinkin'
TTITLE26=My Baby's Gone
TTITLE27=Life I Used To Live
TTITLE28=Sick Feelin' Blues
TTITLE29=Don't Think Cause You're Pretty
EXTD=YEAR: 2004
EXTT0=
EXTT1=
EXTT2=
EXTT3=
EXTT4=
EXTT5=
EXTT6=
EXTT7=
EXTT8=
EXTT9=
EXTT10=
EXTT11=
EXTT12=
EXTT13=
EXTT14=
EXTT15=
EXTT16=
EXTT17=
EXTT18=
EXTT19=
EXTT20=
EXTT21=
EXTT22=
EXTT23=
EXTT24=
EXTT25=
EXTT26=
EXTT27=
EXTT28=
EXTT29=
PLAYORDER=
